<?xml version="1.0" encoding="UTF-8" standalone="no"?>
<!DOCTYPE svg PUBLIC "-//W3C//DTD SVG 1.1//EN"
 "http://www.w3.org/Graphics/SVG/1.1/DTD/svg11.dtd">
<!-- Generated by graphviz version 2.47.0 (20210316.0004)
 -->
<!-- Title: dependencies Pages: 1 -->
<svg width="1419pt" height="284pt"
 viewBox="0.00 0.00 1419.00 284.00" xmlns="http://www.w3.org/2000/svg" xmlns:xlink="http://www.w3.org/1999/xlink">
<g id="graph0" class="graph" transform="scale(1 1) rotate(0) translate(4 280)">
<title>dependencies</title>
<polygon fill="white" stroke="transparent" points="-4,4 -4,-280 1415,-280 1415,4 -4,4"/>
<text text-anchor="start" x="684.51" y="-42.4" font-family="Times-12" font-weight="bold" font-size="14.00">Legend</text>
<polygon fill="#ffffb3" stroke="transparent" points="471.5,-10 471.5,-30 491.5,-30 491.5,-10 471.5,-10"/>
<text text-anchor="start" x="495.13" y="-15.4" font-family="Times-12" font-size="14.00"> &#160;Declarations</text>
<polygon fill="#8dd3c7" stroke="transparent" points="584.5,-10 584.5,-30 604.5,-30 604.5,-10 584.5,-10"/>
<text text-anchor="start" x="608.23" y="-15.4" font-family="Times-12" font-size="14.00"> &#160;Module</text>
<polygon fill="#80b1d3" stroke="transparent" points="670.5,-10 670.5,-30 690.5,-30 690.5,-10 670.5,-10"/>
<text text-anchor="start" x="694.28" y="-15.4" font-family="Times-12" font-size="14.00"> &#160;Bootstrap</text>
<polygon fill="#fdb462" stroke="transparent" points="767.5,-10 767.5,-30 787.5,-30 787.5,-10 767.5,-10"/>
<text text-anchor="start" x="791.17" y="-15.4" font-family="Times-12" font-size="14.00"> &#160;Providers</text>
<polygon fill="#fb8072" stroke="transparent" points="863.5,-10 863.5,-30 883.5,-30 883.5,-10 863.5,-10"/>
<text text-anchor="start" x="887.23" y="-15.4" font-family="Times-12" font-size="14.00"> &#160;Exports</text>
<g id="clust1" class="cluster">
<title>cluster_UsersModule</title>
<polygon fill="none" stroke="black" stroke-dasharray="1,5" points="8,-70 8,-268 1403,-268 1403,-70 8,-70"/>
</g>
<g id="clust6" class="cluster">
<title>cluster_UsersModule_providers</title>
<polygon fill="none" stroke="black" points="16,-78 16,-130 1395,-130 1395,-78 16,-78"/>
</g>
<g id="clust4" class="cluster">
<title>cluster_UsersModule_exports</title>
<polygon fill="none" stroke="black" points="625,-208 625,-260 735,-260 735,-208 625,-208"/>
</g>
<!-- UsersService  -->
<g id="node1" class="node">
<title>UsersService </title>
<polygon fill="#fb8072" stroke="black" points="726.85,-252 633.15,-252 633.15,-216 726.85,-216 726.85,-252"/>
<text text-anchor="middle" x="680" y="-229.8" font-family="Times,serif" font-size="14.00">UsersService </text>
</g>
<!-- UsersModule -->
<g id="node2" class="node">
<title>UsersModule</title>
<polygon fill="#8dd3c7" stroke="black" points="725.92,-187 722.92,-191 701.92,-191 698.92,-187 634.08,-187 634.08,-151 725.92,-151 725.92,-187"/>
<text text-anchor="middle" x="680" y="-164.8" font-family="Times,serif" font-size="14.00">UsersModule</text>
</g>
<!-- UsersModule&#45;&gt;UsersService  -->
<g id="edge1" class="edge">
<title>UsersModule&#45;&gt;UsersService </title>
<path fill="none" stroke="black" stroke-dasharray="5,2" d="M680,-187.11C680,-187.11 680,-205.99 680,-205.99"/>
<polygon fill="black" stroke="black" points="676.5,-205.99 680,-215.99 683.5,-205.99 676.5,-205.99"/>
</g>
<!-- CreateGoogleUserProvider -->
<g id="node3" class="node">
<title>CreateGoogleUserProvider</title>
<ellipse fill="#fdb462" stroke="black" cx="1271" cy="-104" rx="116.29" ry="18"/>
<text text-anchor="middle" x="1271" y="-99.8" font-family="Times,serif" font-size="14.00">CreateGoogleUserProvider</text>
</g>
<!-- CreateGoogleUserProvider&#45;&gt;UsersModule -->
<g id="edge2" class="edge">
<title>CreateGoogleUserProvider&#45;&gt;UsersModule</title>
<path fill="none" stroke="black" d="M1271,-122.28C1271,-143.32 1271,-175 1271,-175 1271,-175 735.88,-175 735.88,-175"/>
<polygon fill="black" stroke="black" points="735.88,-171.5 725.88,-175 735.88,-178.5 735.88,-171.5"/>
</g>
<!-- CreateUserProvider -->
<g id="node4" class="node">
<title>CreateUserProvider</title>
<ellipse fill="#fdb462" stroke="black" cx="1049" cy="-104" rx="87.94" ry="18"/>
<text text-anchor="middle" x="1049" y="-99.8" font-family="Times,serif" font-size="14.00">CreateUserProvider</text>
</g>
<!-- CreateUserProvider&#45;&gt;UsersModule -->
<g id="edge3" class="edge">
<title>CreateUserProvider&#45;&gt;UsersModule</title>
<path fill="none" stroke="black" d="M1049,-122.02C1049,-139.37 1049,-163 1049,-163 1049,-163 735.99,-163 735.99,-163"/>
<polygon fill="black" stroke="black" points="735.99,-159.5 725.99,-163 735.99,-166.5 735.99,-159.5"/>
</g>
<!-- FindOneByGoogleIdProvider -->
<g id="node5" class="node">
<title>FindOneByGoogleIdProvider</title>
<ellipse fill="#fdb462" stroke="black" cx="817" cy="-104" rx="125.65" ry="18"/>
<text text-anchor="middle" x="817" y="-99.8" font-family="Times,serif" font-size="14.00">FindOneByGoogleIdProvider</text>
</g>
<!-- FindOneByGoogleIdProvider&#45;&gt;UsersModule -->
<g id="edge4" class="edge">
<title>FindOneByGoogleIdProvider&#45;&gt;UsersModule</title>
<path fill="none" stroke="black" d="M708.44,-113.31C708.44,-113.31 708.44,-140.85 708.44,-140.85"/>
<polygon fill="black" stroke="black" points="704.94,-140.85 708.44,-150.85 711.94,-140.85 704.94,-140.85"/>
</g>
<!-- FindOneUserByEmailProvider -->
<g id="node6" class="node">
<title>FindOneUserByEmailProvider</title>
<ellipse fill="#fdb462" stroke="black" cx="543" cy="-104" rx="130.8" ry="18"/>
<text text-anchor="middle" x="543" y="-99.8" font-family="Times,serif" font-size="14.00">FindOneUserByEmailProvider</text>
</g>
<!-- FindOneUserByEmailProvider&#45;&gt;UsersModule -->
<g id="edge5" class="edge">
<title>FindOneUserByEmailProvider&#45;&gt;UsersModule</title>
<path fill="none" stroke="black" d="M653.97,-113.59C653.97,-113.59 653.97,-140.75 653.97,-140.75"/>
<polygon fill="black" stroke="black" points="650.47,-140.75 653.97,-150.75 657.47,-140.75 650.47,-140.75"/>
</g>
<!-- UsersCreateManyProvider -->
<g id="node7" class="node">
<title>UsersCreateManyProvider</title>
<ellipse fill="#fdb462" stroke="black" cx="280" cy="-104" rx="114" ry="18"/>
<text text-anchor="middle" x="280" y="-99.8" font-family="Times,serif" font-size="14.00">UsersCreateManyProvider</text>
</g>
<!-- UsersCreateManyProvider&#45;&gt;UsersModule -->
<g id="edge6" class="edge">
<title>UsersCreateManyProvider&#45;&gt;UsersModule</title>
<path fill="none" stroke="black" d="M280,-122.02C280,-139.37 280,-163 280,-163 280,-163 624.11,-163 624.11,-163"/>
<polygon fill="black" stroke="black" points="624.11,-166.5 634.11,-163 624.11,-159.5 624.11,-166.5"/>
</g>
<!-- UsersService -->
<g id="node8" class="node">
<title>UsersService</title>
<ellipse fill="#fdb462" stroke="black" cx="86" cy="-104" rx="61.95" ry="18"/>
<text text-anchor="middle" x="86" y="-99.8" font-family="Times,serif" font-size="14.00">UsersService</text>
</g>
<!-- UsersService&#45;&gt;UsersModule -->
<g id="edge7" class="edge">
<title>UsersService&#45;&gt;UsersModule</title>
<path fill="none" stroke="black" d="M86,-122.28C86,-143.32 86,-175 86,-175 86,-175 623.88,-175 623.88,-175"/>
<polygon fill="black" stroke="black" points="623.88,-178.5 633.88,-175 623.88,-171.5 623.88,-178.5"/>
</g>
</g>
</svg>
