<?xml version="1.0" encoding="UTF-8" standalone="no"?>
<!DOCTYPE svg PUBLIC "-//W3C//DTD SVG 1.1//EN"
 "http://www.w3.org/Graphics/SVG/1.1/DTD/svg11.dtd">
<!-- Generated by graphviz version 2.47.0 (20210316.0004)
 -->
<!-- Title: dependencies Pages: 1 -->
<svg width="875pt" height="211pt"
 viewBox="0.00 0.00 875.00 211.00" xmlns="http://www.w3.org/2000/svg" xmlns:xlink="http://www.w3.org/1999/xlink">
<g id="graph0" class="graph" transform="scale(1 1) rotate(0) translate(4 207)">
<title>dependencies</title>
<polygon fill="white" stroke="transparent" points="-4,4 -4,-207 871,-207 871,4 -4,4"/>
<text text-anchor="start" x="412.51" y="-42.4" font-family="Times-12" font-weight="bold" font-size="14.00">Legend</text>
<polygon fill="#ffffb3" stroke="transparent" points="199.5,-10 199.5,-30 219.5,-30 219.5,-10 199.5,-10"/>
<text text-anchor="start" x="223.13" y="-15.4" font-family="Times-12" font-size="14.00"> &#160;Declarations</text>
<polygon fill="#8dd3c7" stroke="transparent" points="312.5,-10 312.5,-30 332.5,-30 332.5,-10 312.5,-10"/>
<text text-anchor="start" x="336.23" y="-15.4" font-family="Times-12" font-size="14.00"> &#160;Module</text>
<polygon fill="#80b1d3" stroke="transparent" points="398.5,-10 398.5,-30 418.5,-30 418.5,-10 398.5,-10"/>
<text text-anchor="start" x="422.28" y="-15.4" font-family="Times-12" font-size="14.00"> &#160;Bootstrap</text>
<polygon fill="#fdb462" stroke="transparent" points="495.5,-10 495.5,-30 515.5,-30 515.5,-10 495.5,-10"/>
<text text-anchor="start" x="519.17" y="-15.4" font-family="Times-12" font-size="14.00"> &#160;Providers</text>
<polygon fill="#fb8072" stroke="transparent" points="591.5,-10 591.5,-30 611.5,-30 611.5,-10 591.5,-10"/>
<text text-anchor="start" x="615.23" y="-15.4" font-family="Times-12" font-size="14.00"> &#160;Exports</text>
<g id="clust1" class="cluster">
<title>cluster_PostsModule</title>
<polygon fill="none" stroke="black" stroke-dasharray="1,5" points="8,-70 8,-195 859,-195 859,-70 8,-70"/>
</g>
<g id="clust3" class="cluster">
<title>cluster_PostsModule_imports</title>
<polygon fill="none" stroke="black" points="351,-78 351,-130 851,-130 851,-78 351,-78"/>
</g>
<g id="clust6" class="cluster">
<title>cluster_PostsModule_providers</title>
<polygon fill="none" stroke="black" points="16,-78 16,-130 343,-130 343,-78 16,-78"/>
</g>
<!-- MetaOptionsModule -->
<g id="node1" class="node">
<title>MetaOptionsModule</title>
<polygon fill="#8dd3c7" stroke="black" points="843.15,-122 840.15,-126 819.15,-126 816.15,-122 710.85,-122 710.85,-86 843.15,-86 843.15,-122"/>
<text text-anchor="middle" x="777" y="-99.8" font-family="Times,serif" font-size="14.00">MetaOptionsModule</text>
</g>
<!-- PostsModule -->
<g id="node5" class="node">
<title>PostsModule</title>
<polygon fill="#8dd3c7" stroke="black" points="502.61,-187 499.61,-191 478.61,-191 475.61,-187 413.39,-187 413.39,-151 502.61,-151 502.61,-187"/>
<text text-anchor="middle" x="458" y="-164.8" font-family="Times,serif" font-size="14.00">PostsModule</text>
</g>
<!-- MetaOptionsModule&#45;&gt;PostsModule -->
<g id="edge1" class="edge">
<title>MetaOptionsModule&#45;&gt;PostsModule</title>
<path fill="none" stroke="black" d="M777,-122.28C777,-143.32 777,-175 777,-175 777,-175 512.69,-175 512.69,-175"/>
<polygon fill="black" stroke="black" points="512.69,-171.5 502.69,-175 512.69,-178.5 512.69,-171.5"/>
</g>
<!-- PaginationModule -->
<g id="node2" class="node">
<title>PaginationModule</title>
<polygon fill="#8dd3c7" stroke="black" points="692.93,-122 689.93,-126 668.93,-126 665.93,-122 573.07,-122 573.07,-86 692.93,-86 692.93,-122"/>
<text text-anchor="middle" x="633" y="-99.8" font-family="Times,serif" font-size="14.00">PaginationModule</text>
</g>
<!-- PaginationModule&#45;&gt;PostsModule -->
<g id="edge2" class="edge">
<title>PaginationModule&#45;&gt;PostsModule</title>
<path fill="none" stroke="black" d="M633,-122.02C633,-139.37 633,-163 633,-163 633,-163 512.61,-163 512.61,-163"/>
<polygon fill="black" stroke="black" points="512.61,-159.5 502.61,-163 512.61,-166.5 512.61,-159.5"/>
</g>
<!-- TagsModule -->
<g id="node3" class="node">
<title>TagsModule</title>
<polygon fill="#8dd3c7" stroke="black" points="555.26,-122 552.26,-126 531.26,-126 528.26,-122 468.74,-122 468.74,-86 555.26,-86 555.26,-122"/>
<text text-anchor="middle" x="512" y="-99.8" font-family="Times,serif" font-size="14.00">TagsModule</text>
</g>
<!-- TagsModule&#45;&gt;PostsModule -->
<g id="edge3" class="edge">
<title>TagsModule&#45;&gt;PostsModule</title>
<path fill="none" stroke="black" d="M485.59,-122.11C485.59,-122.11 485.59,-140.99 485.59,-140.99"/>
<polygon fill="black" stroke="black" points="482.09,-140.99 485.59,-150.99 489.09,-140.99 482.09,-140.99"/>
</g>
<!-- UsersModule -->
<g id="node4" class="node">
<title>UsersModule</title>
<polygon fill="#8dd3c7" stroke="black" points="450.92,-122 447.92,-126 426.92,-126 423.92,-122 359.08,-122 359.08,-86 450.92,-86 450.92,-122"/>
<text text-anchor="middle" x="405" y="-99.8" font-family="Times,serif" font-size="14.00">UsersModule</text>
</g>
<!-- UsersModule&#45;&gt;PostsModule -->
<g id="edge4" class="edge">
<title>UsersModule&#45;&gt;PostsModule</title>
<path fill="none" stroke="black" d="M432.08,-122.11C432.08,-122.11 432.08,-140.99 432.08,-140.99"/>
<polygon fill="black" stroke="black" points="428.58,-140.99 432.08,-150.99 435.58,-140.99 428.58,-140.99"/>
</g>
<!-- CreatePostProvider -->
<g id="node6" class="node">
<title>CreatePostProvider</title>
<ellipse fill="#fdb462" stroke="black" cx="249" cy="-104" rx="86.25" ry="18"/>
<text text-anchor="middle" x="249" y="-99.8" font-family="Times,serif" font-size="14.00">CreatePostProvider</text>
</g>
<!-- CreatePostProvider&#45;&gt;PostsModule -->
<g id="edge5" class="edge">
<title>CreatePostProvider&#45;&gt;PostsModule</title>
<path fill="none" stroke="black" d="M249,-122.02C249,-139.37 249,-163 249,-163 249,-163 403.42,-163 403.42,-163"/>
<polygon fill="black" stroke="black" points="403.42,-166.5 413.42,-163 403.42,-159.5 403.42,-166.5"/>
</g>
<!-- PostsService -->
<g id="node7" class="node">
<title>PostsService</title>
<ellipse fill="#fdb462" stroke="black" cx="84" cy="-104" rx="60.27" ry="18"/>
<text text-anchor="middle" x="84" y="-99.8" font-family="Times,serif" font-size="14.00">PostsService</text>
</g>
<!-- PostsService&#45;&gt;PostsModule -->
<g id="edge6" class="edge">
<title>PostsService&#45;&gt;PostsModule</title>
<path fill="none" stroke="black" d="M84,-122.28C84,-143.32 84,-175 84,-175 84,-175 403.26,-175 403.26,-175"/>
<polygon fill="black" stroke="black" points="403.26,-178.5 413.26,-175 403.26,-171.5 403.26,-178.5"/>
</g>
</g>
</svg>
